  0
SECTION
  2
HEADER
  9
$ACADVER
  1
AC1014
  9
$HANDSEED
  5
FFFF
  9
$MEASUREMENT
 70
     1
  0
ENDSEC
  0
SECTION
  2
TABLES
  0
TABLE
  2
VPORT
  5
8
330
0
100
AcDbSymbolTable
 70
     4
  0
VPORT
  5
2E
330
8
100
AcDbSymbolTableRecord
100
AcDbViewportTableRecord
  2
*ACTIVE
 70
     0
 10
0.0
 20
0.0
 11
1.0
 21
1.0
 12
210.0
 22
148.5
 13
0.0
 23
0.0
 14
10.0
 24
10.0
 15
10.0
 25
10.0
 16
0.0
 26
0.0
 36
1.0
 17
0.0
 27
0.0
 37
0.0
 40
341.0
 41
1.24
 42
50.0
 43
0.0
 44
0.0
 50
0.0
 51
0.0
 71
     0
 72
   100
 73
     1
 74
     3
 75
     0
 76
     0
 77
     0
 78
     0
  0
ENDTAB
  0
TABLE
  2
LTYPE
  5
5
330
0
100
AcDbSymbolTable
 70
     1
  0
LTYPE
  5
14
330
5
100
AcDbSymbolTableRecord
100
AcDbLinetypeTableRecord
  2
BYBLOCK
 70
     0
  3

 72
    65
 73
     0
 40
0.0
  0
LTYPE
  5
15
330
5
100
AcDbSymbolTableRecord
100
AcDbLinetypeTableRecord
  2
BYLAYER
 70
     0
  3

 72
    65
 73
     0
 40
0.0
  0
LTYPE
  5
16
330
5
100
AcDbSymbolTableRecord
100
AcDbLinetypeTableRecord
  2
CONTINUOUS
 70
     0
  3
Solid line
 72
    65
 73
     0
 40
0.0
  0
ENDTAB
  0
TABLE
  2
LAYER
  5
2
100
AcDbSymbolTable
 70
1
  0
LAYER
  5
50
100
AcDbSymbolTableRecord
100
AcDbLayerTableRecord
  2
0
 70
0
  6
CONTINUOUS
  0
ENDTAB
  0
TABLE
  2
STYLE
  5
3
330
0
100
AcDbSymbolTable
 70
     1
  0
STYLE
  5
11
330
3
100
AcDbSymbolTableRecord
100
AcDbTextStyleTableRecord
  2
STANDARD
 70
     0
 40
0.0
 41
1.0
 50
0.0
 71
     0
 42
2.5
  3
txt
  4

  0
ENDTAB
  0
TABLE
  2
VIEW
  5
6
330
0
100
AcDbSymbolTable
 70
     0
  0
ENDTAB
  0
TABLE
  2
UCS
  5
7
330
0
100
AcDbSymbolTable
 70
     0
  0
ENDTAB
  0
TABLE
  2
APPID
  5
9
330
0
100
AcDbSymbolTable
 70
     2
  0
APPID
  5
12
330
9
100
AcDbSymbolTableRecord
100
AcDbRegAppTableRecord
  2
ACAD
 70
     0
  0
ENDTAB
  0
TABLE
  2
DIMSTYLE
  5
A
330
0
100
AcDbSymbolTable
 70
     1
  0
DIMSTYLE
105
27
330
A
100
AcDbSymbolTableRecord
100
AcDbDimStyleTableRecord
  2
ISO-25
 70
     0
  3

  4

  5

  6

  7

 40
1.0
 41
2.5
 42
0.625
 43
3.75
 44
1.25
 45
0.0
 46
0.0
 47
0.0
 48
0.0
140
2.5
141
2.5
142
0.0
143
0.03937007874016
144
1.0
145
0.0
146
1.0
147
0.625
 71
     0
 72
     0
 73
     0
 74
     0
 75
     0
 76
     0
 77
     1
 78
     8
170
     0
171
     3
172
     1
173
     0
174
     0
175
     0
176
     0
177
     0
178
     0
270
     2
271
     2
272
     2
273
     2
274
     3
340
11
275
     0
280
     0
281
     0
282
     0
283
     0
284
     8
285
     0
286
     0
287
     3
288
     0
  0
ENDTAB
  0
TABLE
  2
BLOCK_RECORD
  5
1
330
0
100
AcDbSymbolTable
 70
     1
  0
BLOCK_RECORD
  5
1F
330
1
100
AcDbSymbolTableRecord
100
AcDbBlockTableRecord
  2
*MODEL_SPACE
  0
BLOCK_RECORD
  5
1B
330
1
100
AcDbSymbolTableRecord
100
AcDbBlockTableRecord
  2
*PAPER_SPACE
  0
ENDTAB
  0
ENDSEC
  0
SECTION
  2
BLOCKS
  0
BLOCK
  5
20
330
1F
100
AcDbEntity
  8
0
100
AcDbBlockBegin
  2
*MODEL_SPACE
 70
     0
 10
0.0
 20
0.0
 30
0.0
  3
*MODEL_SPACE
  1

  0
ENDBLK
  5
21
330
1F
100
AcDbEntity
  8
0
100
AcDbBlockEnd
  0
BLOCK
  5
1C
330
1B
100
AcDbEntity
 67
     1
  8
0
100
AcDbBlockBegin
  2
*PAPER_SPACE
  1

  0
ENDBLK
  5
1D
330
1B
100
AcDbEntity
 67
     1
  8
0
100
AcDbBlockEnd
  0
ENDSEC
  0
SECTION
  2
ENTITIES
  0
LWPOLYLINE
  5
100
100
AcDbEntity
  8
0
 62
1
100
AcDbPolyline
 90
36
 70
1
 10
0.531626
 20
-30.780028
 30
0.0
 10
0.531626
 20
-35.806306
 30
0.0
 10
1.691536
 20
-35.806306
 30
0.0
 10
1.691536
 20
-45.085590
 30
0.0
 10
0.531626
 20
-45.085590
 30
0.0
 10
0.531626
 20
-50.111869
 30
0.0
 10
6.717816
 20
-50.111869
 30
0.0
 10
6.717816
 20
-48.951958
 30
0.0
 10
15.997100
 20
-48.951958
 30
0.0
 10
15.997100
 20
-50.111869
 30
0.0
 10
25.276383
 20
-50.111869
 30
0.0
 10
25.276383
 20
-48.951958
 30
0.0
 10
34.555667
 20
-48.951958
 30
0.0
 10
34.555667
 20
-50.111869
 30
0.0
 10
43.834961
 20
-50.111869
 30
0.0
 10
43.834961
 20
-48.951958
 30
0.0
 10
53.114245
 20
-48.951958
 30
0.0
 10
53.114245
 20
-50.111869
 30
0.0
 10
59.300434
 20
-50.111869
 30
0.0
 10
59.300434
 20
-45.085590
 30
0.0
 10
58.140523
 20
-45.085590
 30
0.0
 10
58.140523
 20
-35.806306
 30
0.0
 10
59.300434
 20
-35.806306
 30
0.0
 10
59.300434
 20
-30.780028
 30
0.0
 10
53.114245
 20
-30.780028
 30
0.0
 10
53.114245
 20
-31.939938
 30
0.0
 10
43.834961
 20
-31.939938
 30
0.0
 10
43.834961
 20
-30.780028
 30
0.0
 10
34.555667
 20
-30.780028
 30
0.0
 10
34.555667
 20
-31.939938
 30
0.0
 10
25.276383
 20
-31.939938
 30
0.0
 10
25.276383
 20
-30.780028
 30
0.0
 10
15.997100
 20
-30.780028
 30
0.0
 10
15.997100
 20
-31.939938
 30
0.0
 10
6.717816
 20
-31.939938
 30
0.0
 10
6.717816
 20
-30.780028
 30
0.0
  0
LWPOLYLINE
  5
101
100
AcDbEntity
  8
0
 62
1
100
AcDbPolyline
 90
28
 70
1
 10
61.620255
 20
-30.780028
 30
0.0
 10
61.620255
 20
-35.806306
 30
0.0
 10
60.460344
 20
-35.806306
 30
0.0
 10
60.460344
 20
-45.085590
 30
0.0
 10
61.620255
 20
-45.085590
 30
0.0
 10
61.620255
 20
-50.111869
 30
0.0
 10
66.646533
 20
-50.111869
 30
0.0
 10
66.646533
 20
-48.951958
 30
0.0
 10
75.925817
 20
-48.951958
 30
0.0
 10
75.925817
 20
-50.111869
 30
0.0
 10
85.205101
 20
-50.111869
 30
0.0
 10
85.205101
 20
-48.951958
 30
0.0
 10
94.484384
 20
-48.951958
 30
0.0
 10
94.484384
 20
-50.111869
 30
0.0
 10
99.510663
 20
-50.111869
 30
0.0
 10
99.510663
 20
-45.085590
 30
0.0
 10
100.670573
 20
-45.085590
 30
0.0
 10
100.670573
 20
-35.806306
 30
0.0
 10
99.510663
 20
-35.806306
 30
0.0
 10
99.510663
 20
-30.780028
 30
0.0
 10
94.484384
 20
-30.780028
 30
0.0
 10
94.484384
 20
-31.939938
 30
0.0
 10
85.205101
 20
-31.939938
 30
0.0
 10
85.205101
 20
-30.780028
 30
0.0
 10
75.925817
 20
-30.780028
 30
0.0
 10
75.925817
 20
-31.939938
 30
0.0
 10
66.646533
 20
-31.939938
 30
0.0
 10
66.646533
 20
-30.780028
 30
0.0
  0
LWPOLYLINE
  5
102
100
AcDbEntity
  8
0
 62
1
100
AcDbPolyline
 90
36
 70
1
 10
0.531626
 20
-10.288276
 30
0.0
 10
0.531626
 20
-15.314555
 30
0.0
 10
1.691536
 20
-15.314555
 30
0.0
 10
1.691536
 20
-24.593838
 30
0.0
 10
0.531626
 20
-24.593838
 30
0.0
 10
0.531626
 20
-29.620117
 30
0.0
 10
6.717816
 20
-29.620117
 30
0.0
 10
6.717816
 20
-28.460207
 30
0.0
 10
15.997100
 20
-28.460207
 30
0.0
 10
15.997100
 20
-29.620117
 30
0.0
 10
25.276383
 20
-29.620117
 30
0.0
 10
25.276383
 20
-28.460207
 30
0.0
 10
34.555667
 20
-28.460207
 30
0.0
 10
34.555667
 20
-29.620117
 30
0.0
 10
43.834961
 20
-29.620117
 30
0.0
 10
43.834961
 20
-28.460207
 30
0.0
 10
53.114245
 20
-28.460207
 30
0.0
 10
53.114245
 20
-29.620117
 30
0.0
 10
59.300434
 20
-29.620117
 30
0.0
 10
59.300434
 20
-24.593838
 30
0.0
 10
58.140523
 20
-24.593838
 30
0.0
 10
58.140523
 20
-15.314555
 30
0.0
 10
59.300434
 20
-15.314555
 30
0.0
 10
59.300434
 20
-10.288276
 30
0.0
 10
53.114245
 20
-10.288276
 30
0.0
 10
53.114245
 20
-11.448187
 30
0.0
 10
43.834961
 20
-11.448187
 30
0.0
 10
43.834961
 20
-10.288276
 30
0.0
 10
34.555667
 20
-10.288276
 30
0.0
 10
34.555667
 20
-11.448187
 30
0.0
 10
25.276383
 20
-11.448187
 30
0.0
 10
25.276383
 20
-10.288276
 30
0.0
 10
15.997100
 20
-10.288276
 30
0.0
 10
15.997100
 20
-11.448187
 30
0.0
 10
6.717816
 20
-11.448187
 30
0.0
 10
6.717816
 20
-10.288276
 30
0.0
  0
LWPOLYLINE
  5
103
100
AcDbEntity
  8
0
 62
1
100
AcDbPolyline
 90
28
 70
1
 10
61.620255
 20
-10.288276
 30
0.0
 10
61.620255
 20
-15.314555
 30
0.0
 10
60.460344
 20
-15.314555
 30
0.0
 10
60.460344
 20
-24.593838
 30
0.0
 10
61.620255
 20
-24.593838
 30
0.0
 10
61.620255
 20
-29.620117
 30
0.0
 10
66.646533
 20
-29.620117
 30
0.0
 10
66.646533
 20
-28.460207
 30
0.0
 10
75.925817
 20
-28.460207
 30
0.0
 10
75.925817
 20
-29.620117
 30
0.0
 10
85.205101
 20
-29.620117
 30
0.0
 10
85.205101
 20
-28.460207
 30
0.0
 10
94.484384
 20
-28.460207
 30
0.0
 10
94.484384
 20
-29.620117
 30
0.0
 10
99.510663
 20
-29.620117
 30
0.0
 10
99.510663
 20
-24.593838
 30
0.0
 10
100.670573
 20
-24.593838
 30
0.0
 10
100.670573
 20
-15.314555
 30
0.0
 10
99.510663
 20
-15.314555
 30
0.0
 10
99.510663
 20
-10.288276
 30
0.0
 10
94.484384
 20
-10.288276
 30
0.0
 10
94.484384
 20
-11.448187
 30
0.0
 10
85.205101
 20
-11.448187
 30
0.0
 10
85.205101
 20
-10.288276
 30
0.0
 10
75.925817
 20
-10.288276
 30
0.0
 10
75.925817
 20
-11.448187
 30
0.0
 10
66.646533
 20
-11.448187
 30
0.0
 10
66.646533
 20
-10.288276
 30
0.0
  0
LWPOLYLINE
  5
104
100
AcDbEntity
  8
0
 62
1
100
AcDbPolyline
 90
44
 70
1
 10
62.047167
 20
30.356920
 30
0.0
 10
62.047167
 20
25.330641
 30
0.0
 10
60.887257
 20
25.330641
 30
0.0
 10
60.887257
 20
16.051357
 30
0.0
 10
62.047167
 20
16.051357
 30
0.0
 10
62.047167
 20
6.772074
 30
0.0
 10
60.887257
 20
6.772074
 30
0.0
 10
60.887257
 20
-2.507210
 30
0.0
 10
62.047167
 20
-2.507210
 30
0.0
 10
62.047167
 20
-7.533489
 30
0.0
 10
67.073446
 20
-7.533489
 30
0.0
 10
67.073446
 20
-8.693399
 30
0.0
 10
76.352730
 20
-8.693399
 30
0.0
 10
76.352730
 20
-7.533489
 30
0.0
 10
85.632013
 20
-7.533489
 30
0.0
 10
85.632013
 20
-8.693399
 30
0.0
 10
94.911297
 20
-8.693399
 30
0.0
 10
94.911297
 20
-7.533489
 30
0.0
 10
104.190581
 20
-7.533489
 30
0.0
 10
104.190581
 20
-8.693399
 30
0.0
 10
113.469864
 20
-8.693399
 30
0.0
 10
113.469864
 20
-7.533489
 30
0.0
 10
118.496143
 20
-7.533489
 30
0.0
 10
118.496143
 20
-2.507210
 30
0.0
 10
119.656054
 20
-2.507210
 30
0.0
 10
119.656054
 20
6.772074
 30
0.0
 10
118.496143
 20
6.772074
 30
0.0
 10
118.496143
 20
16.051357
 30
0.0
 10
119.656054
 20
16.051357
 30
0.0
 10
119.656054
 20
25.330641
 30
0.0
 10
118.496143
 20
25.330641
 30
0.0
 10
118.496143
 20
30.356920
 30
0.0
 10
113.469864
 20
30.356920
 30
0.0
 10
113.469864
 20
31.516830
 30
0.0
 10
104.190581
 20
31.516830
 30
0.0
 10
104.190581
 20
30.356920
 30
0.0
 10
94.911297
 20
30.356920
 30
0.0
 10
94.911297
 20
31.516830
 30
0.0
 10
85.632013
 20
31.516830
 30
0.0
 10
85.632013
 20
30.356920
 30
0.0
 10
76.352730
 20
30.356920
 30
0.0
 10
76.352730
 20
31.516830
 30
0.0
 10
67.073446
 20
31.516830
 30
0.0
 10
67.073446
 20
30.356920
 30
0.0
  0
SPLINE
  5
105
100
AcDbEntity
  8
0
 62
1
100
AcDbSpline
 70
8
 71
3
 72
8
 73
4
 74
0
 40
0
 40
0
 40
0
 40
0
 40
1
 40
1
 40
1
 40
1
 10
34.848466
 20
6.173187
 30
0.0
 10
33.831996
 20
6.173187
 30
0.0
 10
32.915614
 20
5.560880
 30
0.0
 10
32.526628
 20
4.621784
 30
0.0
  0
SPLINE
  5
106
100
AcDbEntity
  8
0
 62
1
100
AcDbSpline
 70
8
 71
3
 72
8
 73
4
 74
0
 40
0
 40
0
 40
0
 40
0
 40
1
 40
1
 40
1
 40
1
 10
32.526628
 20
4.621784
 30
0.0
 10
32.137642
 20
3.682688
 30
0.0
 10
32.352656
 20
2.601742
 30
0.0
 10
33.071408
 20
1.882989
 30
0.0
  0
SPLINE
  5
107
100
AcDbEntity
  8
0
 62
1
100
AcDbSpline
 70
8
 71
3
 72
8
 73
4
 74
0
 40
0
 40
0
 40
0
 40
0
 40
1
 40
1
 40
1
 40
1
 10
33.071408
 20
1.882989
 30
0.0
 10
33.790161
 20
1.164237
 30
0.0
 10
34.871107
 20
0.949223
 30
0.0
 10
35.810203
 20
1.338209
 30
0.0
  0
SPLINE
  5
108
100
AcDbEntity
  8
0
 62
1
100
AcDbSpline
 70
8
 71
3
 72
8
 73
4
 74
0
 40
0
 40
0
 40
0
 40
0
 40
1
 40
1
 40
1
 40
1
 10
35.810203
 20
1.338209
 30
0.0
 10
36.749299
 20
1.727196
 30
0.0
 10
37.361605
 20
2.643577
 30
0.0
 10
37.361605
 20
3.660047
 30
0.0
  0
SPLINE
  5
109
100
AcDbEntity
  8
0
 62
1
100
AcDbSpline
 70
8
 71
3
 72
8
 73
4
 74
0
 40
0
 40
0
 40
0
 40
0
 40
1
 40
1
 40
1
 40
1
 10
37.361605
 20
3.660047
 30
0.0
 10
37.361605
 20
4.326573
 30
0.0
 10
37.096829
 20
4.965800
 30
0.0
 10
36.625524
 20
5.437105
 30
0.0
  0
SPLINE
  5
10a
100
AcDbEntity
  8
0
 62
1
100
AcDbSpline
 70
8
 71
3
 72
8
 73
4
 74
0
 40
0
 40
0
 40
0
 40
0
 40
1
 40
1
 40
1
 40
1
 10
36.625524
 20
5.437105
 30
0.0
 10
36.154219
 20
5.908410
 30
0.0
 10
35.514992
 20
6.173187
 30
0.0
 10
34.848466
 20
6.173187
 30
0.0
  0
LWPOLYLINE
  5
10b
100
AcDbEntity
  8
0
 62
1
100
AcDbPolyline
 90
44
 70
1
 10
1.353229
 20
29.422546
 30
0.0
 10
1.353229
 20
24.396267
 30
0.0
 10
0.193318
 20
24.396267
 30
0.0
 10
0.193318
 20
15.116984
 30
0.0
 10
1.353229
 20
15.116984
 30
0.0
 10
1.353229
 20
5.837700
 30
0.0
 10
0.193318
 20
5.837700
 30
0.0
 10
0.193318
 20
-3.441584
 30
0.0
 10
1.353229
 20
-3.441584
 30
0.0
 10
1.353229
 20
-8.467862
 30
0.0
 10
6.379509
 20
-8.467862
 30
0.0
 10
6.379509
 20
-9.627773
 30
0.0
 10
15.658792
 20
-9.627773
 30
0.0
 10
15.658792
 20
-8.467862
 30
0.0
 10
24.938076
 20
-8.467862
 30
0.0
 10
24.938076
 20
-9.627773
 30
0.0
 10
34.217360
 20
-9.627773
 30
0.0
 10
34.217360
 20
-8.467862
 30
0.0
 10
43.496654
 20
-8.467862
 30
0.0
 10
43.496654
 20
-9.627773
 30
0.0
 10
52.775937
 20
-9.627773
 30
0.0
 10
52.775937
 20
-8.467862
 30
0.0
 10
57.802216
 20
-8.467862
 30
0.0
 10
57.802216
 20
-3.441584
 30
0.0
 10
58.962127
 20
-3.441584
 30
0.0
 10
58.962127
 20
5.837700
 30
0.0
 10
57.802216
 20
5.837700
 30
0.0
 10
57.802216
 20
15.116984
 30
0.0
 10
58.962127
 20
15.116984
 30
0.0
 10
58.962127
 20
24.396267
 30
0.0
 10
57.802216
 20
24.396267
 30
0.0
 10
57.802216
 20
29.422546
 30
0.0
 10
52.775937
 20
29.422546
 30
0.0
 10
52.775937
 20
30.582456
 30
0.0
 10
43.496654
 20
30.582456
 30
0.0
 10
43.496654
 20
29.422546
 30
0.0
 10
34.217360
 20
29.422546
 30
0.0
 10
34.217360
 20
30.582456
 30
0.0
 10
24.938076
 20
30.582456
 30
0.0
 10
24.938076
 20
29.422546
 30
0.0
 10
15.658792
 20
29.422546
 30
0.0
 10
15.658792
 20
30.582456
 30
0.0
 10
6.379509
 20
30.582456
 30
0.0
 10
6.379509
 20
29.422546
 30
0.0
  0
SPLINE
  5
10c
100
AcDbEntity
  8
0
 62
1
100
AcDbSpline
 70
8
 71
3
 72
8
 73
4
 74
0
 40
0
 40
0
 40
0
 40
0
 40
1
 40
1
 40
1
 40
1
 10
24.409271
 20
6.173187
 30
0.0
 10
23.392801
 20
6.173187
 30
0.0
 10
22.476419
 20
5.560880
 30
0.0
 10
22.087433
 20
4.621784
 30
0.0
  0
SPLINE
  5
10d
100
AcDbEntity
  8
0
 62
1
100
AcDbSpline
 70
8
 71
3
 72
8
 73
4
 74
0
 40
0
 40
0
 40
0
 40
0
 40
1
 40
1
 40
1
 40
1
 10
22.087433
 20
4.621784
 30
0.0
 10
21.698447
 20
3.682688
 30
0.0
 10
21.913460
 20
2.601742
 30
0.0
 10
22.632213
 20
1.882989
 30
0.0
  0
SPLINE
  5
10e
100
AcDbEntity
  8
0
 62
1
100
AcDbSpline
 70
8
 71
3
 72
8
 73
4
 74
0
 40
0
 40
0
 40
0
 40
0
 40
1
 40
1
 40
1
 40
1
 10
22.632213
 20
1.882989
 30
0.0
 10
23.350966
 20
1.164237
 30
0.0
 10
24.431912
 20
0.949223
 30
0.0
 10
25.371008
 20
1.338209
 30
0.0
  0
SPLINE
  5
10f
100
AcDbEntity
  8
0
 62
1
100
AcDbSpline
 70
8
 71
3
 72
8
 73
4
 74
0
 40
0
 40
0
 40
0
 40
0
 40
1
 40
1
 40
1
 40
1
 10
25.371008
 20
1.338209
 30
0.0
 10
26.310103
 20
1.727196
 30
0.0
 10
26.922410
 20
2.643577
 30
0.0
 10
26.922410
 20
3.660047
 30
0.0
  0
SPLINE
  5
110
100
AcDbEntity
  8
0
 62
1
100
AcDbSpline
 70
8
 71
3
 72
8
 73
4
 74
0
 40
0
 40
0
 40
0
 40
0
 40
1
 40
1
 40
1
 40
1
 10
26.922410
 20
3.660047
 30
0.0
 10
26.922410
 20
4.326573
 30
0.0
 10
26.657634
 20
4.965800
 30
0.0
 10
26.186329
 20
5.437105
 30
0.0
  0
SPLINE
  5
111
100
AcDbEntity
  8
0
 62
1
100
AcDbSpline
 70
8
 71
3
 72
8
 73
4
 74
0
 40
0
 40
0
 40
0
 40
0
 40
1
 40
1
 40
1
 40
1
 10
26.186329
 20
5.437105
 30
0.0
 10
25.715024
 20
5.908410
 30
0.0
 10
25.075797
 20
6.173187
 30
0.0
 10
24.409271
 20
6.173187
 30
0.0
  0
LWPOLYLINE
  5
112
100
AcDbEntity
  8
0
 62
1
100
AcDbPolyline
 90
1
 70
1
 10
34.848466
 20
6.173187
 30
0.0
  0
SPLINE
  5
113
100
AcDbEntity
  8
0
 62
1
100
AcDbSpline
 70
8
 71
3
 72
8
 73
4
 74
0
 40
0
 40
0
 40
0
 40
0
 40
1
 40
1
 40
1
 40
1
 10
13.970077
 20
6.173187
 30
0.0
 10
12.953607
 20
6.173187
 30
0.0
 10
12.037225
 20
5.560880
 30
0.0
 10
11.648239
 20
4.621784
 30
0.0
  0
SPLINE
  5
114
100
AcDbEntity
  8
0
 62
1
100
AcDbSpline
 70
8
 71
3
 72
8
 73
4
 74
0
 40
0
 40
0
 40
0
 40
0
 40
1
 40
1
 40
1
 40
1
 10
11.648239
 20
4.621784
 30
0.0
 10
11.259253
 20
3.682688
 30
0.0
 10
11.474266
 20
2.601742
 30
0.0
 10
12.193019
 20
1.882989
 30
0.0
  0
SPLINE
  5
115
100
AcDbEntity
  8
0
 62
1
100
AcDbSpline
 70
8
 71
3
 72
8
 73
4
 74
0
 40
0
 40
0
 40
0
 40
0
 40
1
 40
1
 40
1
 40
1
 10
12.193019
 20
1.882989
 30
0.0
 10
12.911772
 20
1.164237
 30
0.0
 10
13.992718
 20
0.949223
 30
0.0
 10
14.931814
 20
1.338209
 30
0.0
  0
SPLINE
  5
116
100
AcDbEntity
  8
0
 62
1
100
AcDbSpline
 70
8
 71
3
 72
8
 73
4
 74
0
 40
0
 40
0
 40
0
 40
0
 40
1
 40
1
 40
1
 40
1
 10
14.931814
 20
1.338209
 30
0.0
 10
15.870909
 20
1.727196
 30
0.0
 10
16.483216
 20
2.643577
 30
0.0
 10
16.483216
 20
3.660047
 30
0.0
  0
SPLINE
  5
117
100
AcDbEntity
  8
0
 62
1
100
AcDbSpline
 70
8
 71
3
 72
8
 73
4
 74
0
 40
0
 40
0
 40
0
 40
0
 40
1
 40
1
 40
1
 40
1
 10
16.483216
 20
3.660047
 30
0.0
 10
16.483216
 20
4.326573
 30
0.0
 10
16.218440
 20
4.965800
 30
0.0
 10
15.747135
 20
5.437105
 30
0.0
  0
SPLINE
  5
118
100
AcDbEntity
  8
0
 62
1
100
AcDbSpline
 70
8
 71
3
 72
8
 73
4
 74
0
 40
0
 40
0
 40
0
 40
0
 40
1
 40
1
 40
1
 40
1
 10
15.747135
 20
5.437105
 30
0.0
 10
15.275830
 20
5.908410
 30
0.0
 10
14.636603
 20
6.173187
 30
0.0
 10
13.970077
 20
6.173187
 30
0.0
  0
LWPOLYLINE
  5
119
100
AcDbEntity
  8
0
 62
1
100
AcDbPolyline
 90
1
 70
1
 10
24.409271
 20
6.173187
 30
0.0
  0
SPLINE
  5
11a
100
AcDbEntity
  8
0
 62
1
100
AcDbSpline
 70
8
 71
3
 72
8
 73
4
 74
0
 40
0
 40
0
 40
0
 40
0
 40
1
 40
1
 40
1
 40
1
 10
13.970077
 20
19.705475
 30
0.0
 10
13.579127
 20
19.705475
 30
0.0
 10
13.226672
 20
19.469973
 30
0.0
 10
13.077062
 20
19.108782
 30
0.0
  0
SPLINE
  5
11b
100
AcDbEntity
  8
0
 62
1
100
AcDbSpline
 70
8
 71
3
 72
8
 73
4
 74
0
 40
0
 40
0
 40
0
 40
0
 40
1
 40
1
 40
1
 40
1
 10
13.077062
 20
19.108782
 30
0.0
 10
12.927452
 20
18.747591
 30
0.0
 10
13.010150
 20
18.331843
 30
0.0
 10
13.286593
 20
18.055399
 30
0.0
  0
SPLINE
  5
11c
100
AcDbEntity
  8
0
 62
1
100
AcDbSpline
 70
8
 71
3
 72
8
 73
4
 74
0
 40
0
 40
0
 40
0
 40
0
 40
1
 40
1
 40
1
 40
1
 10
13.286593
 20
18.055399
 30
0.0
 10
13.563036
 20
17.778956
 30
0.0
 10
13.978785
 20
17.696259
 30
0.0
 10
14.339976
 20
17.845869
 30
0.0
  0
SPLINE
  5
11d
100
AcDbEntity
  8
0
 62
1
100
AcDbSpline
 70
8
 71
3
 72
8
 73
4
 74
0
 40
0
 40
0
 40
0
 40
0
 40
1
 40
1
 40
1
 40
1
 10
14.339976
 20
17.845869
 30
0.0
 10
14.701166
 20
17.995479
 30
0.0
 10
14.936669
 20
18.347933
 30
0.0
 10
14.936669
 20
18.738883
 30
0.0
  0
SPLINE
  5
11e
100
AcDbEntity
  8
0
 62
1
100
AcDbSpline
 70
8
 71
3
 72
8
 73
4
 74
0
 40
0
 40
0
 40
0
 40
0
 40
1
 40
1
 40
1
 40
1
 10
14.936669
 20
18.738883
 30
0.0
 10
14.936669
 20
18.995239
 30
0.0
 10
14.834832
 20
19.241096
 30
0.0
 10
14.653561
 20
19.422367
 30
0.0
  0
SPLINE
  5
11f
100
AcDbEntity
  8
0
 62
1
100
AcDbSpline
 70
8
 71
3
 72
8
 73
4
 74
0
 40
0
 40
0
 40
0
 40
0
 40
1
 40
1
 40
1
 40
1
 10
14.653561
 20
19.422367
 30
0.0
 10
14.472289
 20
19.603638
 30
0.0
 10
14.226433
 20
19.705475
 30
0.0
 10
13.970077
 20
19.705475
 30
0.0
  0
LWPOLYLINE
  5
120
100
AcDbEntity
  8
0
 62
1
100
AcDbPolyline
 90
1
 70
1
 10
13.970077
 20
6.173187
 30
0.0
  0
SPLINE
  5
121
100
AcDbEntity
  8
0
 62
1
100
AcDbSpline
 70
8
 71
3
 72
8
 73
4
 74
0
 40
0
 40
0
 40
0
 40
0
 40
1
 40
1
 40
1
 40
1
 10
45.287656
 20
19.705475
 30
0.0
 10
44.896706
 20
19.705475
 30
0.0
 10
44.544252
 20
19.469973
 30
0.0
 10
44.394641
 20
19.108782
 30
0.0
  0
SPLINE
  5
122
100
AcDbEntity
  8
0
 62
1
100
AcDbSpline
 70
8
 71
3
 72
8
 73
4
 74
0
 40
0
 40
0
 40
0
 40
0
 40
1
 40
1
 40
1
 40
1
 10
44.394641
 20
19.108782
 30
0.0
 10
44.245031
 20
18.747591
 30
0.0
 10
44.327729
 20
18.331843
 30
0.0
 10
44.604172
 20
18.055399
 30
0.0
  0
SPLINE
  5
123
100
AcDbEntity
  8
0
 62
1
100
AcDbSpline
 70
8
 71
3
 72
8
 73
4
 74
0
 40
0
 40
0
 40
0
 40
0
 40
1
 40
1
 40
1
 40
1
 10
44.604172
 20
18.055399
 30
0.0
 10
44.880616
 20
17.778956
 30
0.0
 10
45.296364
 20
17.696259
 30
0.0
 10
45.657555
 20
17.845869
 30
0.0
  0
SPLINE
  5
124
100
AcDbEntity
  8
0
 62
1
100
AcDbSpline
 70
8
 71
3
 72
8
 73
4
 74
0
 40
0
 40
0
 40
0
 40
0
 40
1
 40
1
 40
1
 40
1
 10
45.657555
 20
17.845869
 30
0.0
 10
46.018745
 20
17.995479
 30
0.0
 10
46.254248
 20
18.347933
 30
0.0
 10
46.254248
 20
18.738883
 30
0.0
  0
SPLINE
  5
125
100
AcDbEntity
  8
0
 62
1
100
AcDbSpline
 70
8
 71
3
 72
8
 73
4
 74
0
 40
0
 40
0
 40
0
 40
0
 40
1
 40
1
 40
1
 40
1
 10
46.254248
 20
18.738883
 30
0.0
 10
46.254248
 20
18.995239
 30
0.0
 10
46.152411
 20
19.241096
 30
0.0
 10
45.971140
 20
19.422367
 30
0.0
  0
SPLINE
  5
126
100
AcDbEntity
  8
0
 62
1
100
AcDbSpline
 70
8
 71
3
 72
8
 73
4
 74
0
 40
0
 40
0
 40
0
 40
0
 40
1
 40
1
 40
1
 40
1
 10
45.971140
 20
19.422367
 30
0.0
 10
45.789869
 20
19.603638
 30
0.0
 10
45.544012
 20
19.705475
 30
0.0
 10
45.287656
 20
19.705475
 30
0.0
  0
LWPOLYLINE
  5
127
100
AcDbEntity
  8
0
 62
1
100
AcDbPolyline
 90
1
 70
1
 10
13.970077
 20
19.705475
 30
0.0
  0
SPLINE
  5
128
100
AcDbEntity
  8
0
 62
1
100
AcDbSpline
 70
8
 71
3
 72
8
 73
4
 74
0
 40
0
 40
0
 40
0
 40
0
 40
1
 40
1
 40
1
 40
1
 10
34.848466
 20
19.705475
 30
0.0
 10
34.457516
 20
19.705475
 30
0.0
 10
34.105062
 20
19.469973
 30
0.0
 10
33.955452
 20
19.108782
 30
0.0
  0
SPLINE
  5
129
100
AcDbEntity
  8
0
 62
1
100
AcDbSpline
 70
8
 71
3
 72
8
 73
4
 74
0
 40
0
 40
0
 40
0
 40
0
 40
1
 40
1
 40
1
 40
1
 10
33.955452
 20
19.108782
 30
0.0
 10
33.805841
 20
18.747591
 30
0.0
 10
33.888539
 20
18.331843
 30
0.0
 10
34.164982
 20
18.055399
 30
0.0
  0
SPLINE
  5
12a
100
AcDbEntity
  8
0
 62
1
100
AcDbSpline
 70
8
 71
3
 72
8
 73
4
 74
0
 40
0
 40
0
 40
0
 40
0
 40
1
 40
1
 40
1
 40
1
 10
34.164982
 20
18.055399
 30
0.0
 10
34.441426
 20
17.778956
 30
0.0
 10
34.857174
 20
17.696259
 30
0.0
 10
35.218365
 20
17.845869
 30
0.0
  0
SPLINE
  5
12b
100
AcDbEntity
  8
0
 62
1
100
AcDbSpline
 70
8
 71
3
 72
8
 73
4
 74
0
 40
0
 40
0
 40
0
 40
0
 40
1
 40
1
 40
1
 40
1
 10
35.218365
 20
17.845869
 30
0.0
 10
35.579556
 20
17.995479
 30
0.0
 10
35.815058
 20
18.347933
 30
0.0
 10
35.815058
 20
18.738883
 30
0.0
  0
SPLINE
  5
12c
100
AcDbEntity
  8
0
 62
1
100
AcDbSpline
 70
8
 71
3
 72
8
 73
4
 74
0
 40
0
 40
0
 40
0
 40
0
 40
1
 40
1
 40
1
 40
1
 10
35.815058
 20
18.738883
 30
0.0
 10
35.815058
 20
18.995239
 30
0.0
 10
35.713221
 20
19.241096
 30
0.0
 10
35.531950
 20
19.422367
 30
0.0
  0
SPLINE
  5
12d
100
AcDbEntity
  8
0
 62
1
100
AcDbSpline
 70
8
 71
3
 72
8
 73
4
 74
0
 40
0
 40
0
 40
0
 40
0
 40
1
 40
1
 40
1
 40
1
 10
35.531950
 20
19.422367
 30
0.0
 10
35.350679
 20
19.603638
 30
0.0
 10
35.104822
 20
19.705475
 30
0.0
 10
34.848466
 20
19.705475
 30
0.0
  0
LWPOLYLINE
  5
12e
100
AcDbEntity
  8
0
 62
1
100
AcDbPolyline
 90
1
 70
1
 10
45.287656
 20
19.705475
 30
0.0
  0
SPLINE
  5
12f
100
AcDbEntity
  8
0
 62
1
100
AcDbSpline
 70
8
 71
3
 72
8
 73
4
 74
0
 40
0
 40
0
 40
0
 40
0
 40
1
 40
1
 40
1
 40
1
 10
24.409271
 20
19.705475
 30
0.0
 10
24.018321
 20
19.705475
 30
0.0
 10
23.665866
 20
19.469973
 30
0.0
 10
23.516256
 20
19.108782
 30
0.0
  0
SPLINE
  5
130
100
AcDbEntity
  8
0
 62
1
100
AcDbSpline
 70
8
 71
3
 72
8
 73
4
 74
0
 40
0
 40
0
 40
0
 40
0
 40
1
 40
1
 40
1
 40
1
 10
23.516256
 20
19.108782
 30
0.0
 10
23.366646
 20
18.747591
 30
0.0
 10
23.449344
 20
18.331843
 30
0.0
 10
23.725787
 20
18.055399
 30
0.0
  0
SPLINE
  5
131
100
AcDbEntity
  8
0
 62
1
100
AcDbSpline
 70
8
 71
3
 72
8
 73
4
 74
0
 40
0
 40
0
 40
0
 40
0
 40
1
 40
1
 40
1
 40
1
 10
23.725787
 20
18.055399
 30
0.0
 10
24.002230
 20
17.778956
 30
0.0
 10
24.417979
 20
17.696259
 30
0.0
 10
24.779170
 20
17.845869
 30
0.0
  0
SPLINE
  5
132
100
AcDbEntity
  8
0
 62
1
100
AcDbSpline
 70
8
 71
3
 72
8
 73
4
 74
0
 40
0
 40
0
 40
0
 40
0
 40
1
 40
1
 40
1
 40
1
 10
24.779170
 20
17.845869
 30
0.0
 10
25.140360
 20
17.995479
 30
0.0
 10
25.375863
 20
18.347933
 30
0.0
 10
25.375863
 20
18.738883
 30
0.0
  0
SPLINE
  5
133
100
AcDbEntity
  8
0
 62
1
100
AcDbSpline
 70
8
 71
3
 72
8
 73
4
 74
0
 40
0
 40
0
 40
0
 40
0
 40
1
 40
1
 40
1
 40
1
 10
25.375863
 20
18.738883
 30
0.0
 10
25.375863
 20
18.995239
 30
0.0
 10
25.274026
 20
19.241096
 30
0.0
 10
25.092755
 20
19.422367
 30
0.0
  0
SPLINE
  5
134
100
AcDbEntity
  8
0
 62
1
100
AcDbSpline
 70
8
 71
3
 72
8
 73
4
 74
0
 40
0
 40
0
 40
0
 40
0
 40
1
 40
1
 40
1
 40
1
 10
25.092755
 20
19.422367
 30
0.0
 10
24.911484
 20
19.603638
 30
0.0
 10
24.665627
 20
19.705475
 30
0.0
 10
24.409271
 20
19.705475
 30
0.0
  0
LWPOLYLINE
  5
135
100
AcDbEntity
  8
0
 62
1
100
AcDbPolyline
 90
1
 70
1
 10
34.848466
 20
19.705475
 30
0.0
  0
LWPOLYLINE
  5
136
100
AcDbEntity
  8
0
 62
1
100
AcDbPolyline
 90
1
 70
1
 10
24.409271
 20
19.705475
 30
0.0
  0
LWPOLYLINE
  5
137
100
AcDbEntity
  8
0
 62
1
100
AcDbPolyline
 90
4
 70
1
 10
42.774517
 20
7.505070
 30
0.0
 10
47.800795
 20
7.505070
 30
0.0
 10
47.800795
 20
-0.034348
 30
0.0
 10
42.774517
 20
-0.034348
 30
0.0
  0
LWPOLYLINE
  5
138
100
AcDbEntity
  8
0
 62
1
100
AcDbPolyline
 90
4
 70
1
 10
89.122660
 20
-25.493736
 30
0.0
 10
94.403555
 20
-25.493736
 30
0.0
 10
94.403555
 20
-28.454810
 30
0.0
 10
89.122660
 20
-28.454810
 30
0.0
  0
LWPOLYLINE
  5
139
100
AcDbEntity
  8
0
 62
1
100
AcDbPolyline
 90
4
 70
1
 10
89.122660
 20
-45.992060
 30
0.0
 10
94.403555
 20
-45.992060
 30
0.0
 10
94.403555
 20
-48.953134
 30
0.0
 10
89.122660
 20
-48.953134
 30
0.0
  0
ENDSEC
  0
SECTION
  2
OBJECTS
  0
DICTIONARY
  5
C
330
0
100
AcDbDictionary
  3
ACAD_GROUP
350
D
  3
ACAD_MLINESTYLE
350
17
  0
DICTIONARY
  5
D
330
C
100
AcDbDictionary
  0
DICTIONARY
  5
1A
330
C
100
AcDbDictionary
  0
DICTIONARY
  5
17
330
C
100
AcDbDictionary
  3
STANDARD
350
18
  0
DICTIONARY
  5
19
330
C
100
AcDbDictionary
  0
ENDSEC
  0
EOF
